<?xml version="1.0" encoding="utf-8"?>
<!-- Generator: Adobe Illustrator 25.0.0, SVG Export Plug-In . SVG Version: 6.00 Build 0)  -->
<svg version="1.1" id="Calque_1" xmlns="http://www.w3.org/2000/svg" xmlns:xlink="http://www.w3.org/1999/xlink" x="0px" y="0px"
	 viewBox="0 0 99.2 28" style="enable-background:new 0 0 99.2 28;" xml:space="preserve">
<style type="text/css">
	.st0{fill:#820076;}
	.st1{fill:none;}
	.st2{fill:#FFFFFF;}
	.st3{font-family:'Verdana-Bold';}
	.st4{font-size:10px;}
	.st5{fill:#F7F7F7;}
	.st6{fill:#F5F5F5;}
</style>
<g shape-rendering="crispEdges">
	<rect y="0" class="st0" width="99.2" height="28"/>
</g>
<g>
	<rect x="38.4" y="8.4" class="st1" width="48.2" height="16.4"/>
	<text transform="matrix(1 0 0 1 38.3685 17.0486)" class="st2 st3 st4">MATLAB</text>
	<g>
		<path class="st5" d="M27.7,20.9c-0.2-0.2-0.4-0.4-0.6-0.6c-0.6-0.5-1.2-1-1.8-1.5c-0.3-0.3-0.7-0.4-1.2-0.5c-0.1,0-0.1,0-0.2,0
			c1.1,0.9,2.4,1.7,3.6,2.5c-0.3-0.1-0.5-0.2-0.8-0.3c-0.5-0.2-1-0.4-1.6-0.6c-1-0.3-2-0.2-3,0.3c-0.7,0.4-1.4,0.9-2.2,1.3
			c0.2-0.2,0-0.2-0.2-0.2c-0.6,0-1.1,0-1.7,0.1c-0.7,0.1-1.5,0.2-2.2,0.3c-0.2,0-0.3,0-0.4-0.2c-0.4-0.9-1.1-1.6-2-2.1
			c-0.4-0.2-0.8-0.3-1.2-0.4c0.1-0.1,0.3-0.1,0.4-0.2c1.3-0.8,2.2-1.8,3-3c0.1-0.1,0-0.2-0.1-0.3c-0.6-0.5-1.3-0.9-1.9-1.4
			c-0.1-0.1-0.2-0.1-0.3-0.2c0.3-0.4,0.6-0.8,1-1.2c0.1-0.1,0.2-0.1,0.3-0.1c0.5-0.1,1.1-0.1,1.6-0.3c0.9-0.2,1.4-0.8,1.9-1.5
			c0.2-0.3,0.4-0.5,0.6-0.8c0.1-0.2,0.2-0.3,0.3-0.5c0.2-0.5,0.4-1.1,0.6-1.6c0.2-0.4,0.4-0.7,0.5-1.1c0,0,0,0,0.1,0
			C19.9,8,19.5,9.1,19,10.2c-0.8,1.9-1.7,3.8-2.9,5.6c-0.8,1.1-1.7,2.2-2.8,3c0,0-0.1,0.1-0.1,0.1c0.2,0.1,0.4,0,0.5-0.1
			c1.3-1,2.3-2.3,3.2-3.8c1.3-2.1,2.2-4.4,3.1-6.6c0.2-0.6,0.5-1.2,0.8-1.8c0.3-0.5,0.6-0.5,1.1-0.1c0.2,0.2,0.4,0.5,0.6,0.8
			c0.7,1.2,1.2,2.6,1.7,3.9c1.1,3.2,2.2,6.4,3.5,9.5C27.7,20.7,27.7,20.8,27.7,20.9C27.7,20.9,27.7,20.9,27.7,20.9z M21.7,19.3
			C21.7,19.3,21.7,19.3,21.7,19.3c0,0.1,0,0.2,0,0.2c0.1,0,0.1,0,0.2-0.1c0.3-0.3,0.7-0.5,1-0.8c0.1-0.1,0.2-0.2,0.1-0.4
			c-0.1-1-0.2-1.9-0.3-2.9c-0.1-1-0.1-1.9-0.2-2.9c-0.1-1.3-0.3-2.5-0.4-3.8c0-0.3-0.1-0.7-0.3-1c0-0.1-0.2-0.3-0.3-0.3
			c-0.1,0-0.2,0.2-0.3,0.3c-0.1,0.2-0.1,0.5-0.1,0.8c0,1.3,0,2.7,0.1,4c0,1.1,0.1,2.3,0.2,3.4c0,0.6,0.1,1.1,0.1,1.7
			C21.7,18.1,21.7,18.7,21.7,19.3z"/>
		<path class="st6" d="M18.4,9.8c-0.9,1.8-2.1,2.5-3.2,2.3c0.3-0.2,0.5-0.4,0.7-0.4c1-0.2,1.7-1,2.4-1.7C18.3,9.9,18.3,9.9,18.4,9.8
			z"/>
	</g>
</g>
</svg>
